<?xml version="1.0" standalone="no"?>
<!DOCTYPE svg PUBLIC "-//W3C//DTD SVG 20010904//EN"
 "http://www.w3.org/TR/2001/REC-SVG-20010904/DTD/svg10.dtd">
<svg version="1.0" xmlns="http://www.w3.org/2000/svg"
 width="400.000000pt" height="400.000000pt" viewBox="0 0 400.000000 400.000000"
 preserveAspectRatio="xMidYMid meet">
<metadata>
Created by potrace 1.11, written by Peter Selinger 2001-2013
</metadata>
<g transform="translate(0.000000,400.000000) scale(0.100000,-0.100000)"
fill="#000000" stroke="none">
<path d="M2994 2772 c2 -4 -4 -9 -15 -10 -42 -4 -49 -6 -49 -13 0 -4 -11 -6
-25 -5 -14 2 -22 -1 -18 -7 4 -6 -4 -8 -20 -5 -14 3 -26 2 -25 -1 2 -19 -4
-22 -17 -11 -13 11 -14 10 -9 -3 4 -12 1 -15 -15 -12 -12 2 -20 -1 -18 -8 1
-7 -4 -11 -10 -10 -7 2 -13 -3 -13 -10 0 -8 -4 -7 -10 3 -8 13 -10 12 -10 -3
0 -10 -4 -15 -10 -12 -5 3 -10 1 -10 -4 0 -6 -7 -11 -15 -11 -8 0 -15 -5 -15
-10 0 -6 -13 -18 -30 -29 -16 -10 -27 -21 -23 -24 3 -4 -4 -7 -16 -7 -12 0
-19 -4 -16 -10 3 -5 -2 -10 -11 -10 -10 0 -14 -3 -11 -6 7 -7 -30 -44 -44 -44
-4 0 -5 -10 -3 -22 2 -13 2 -17 -2 -10 -8 18 -24 4 -17 -15 4 -11 3 -14 -5 -9
-11 6 -16 -5 -14 -25 1 -4 -8 -5 -18 -2 -11 3 -20 12 -20 19 0 8 -8 14 -17 14
-15 0 -16 2 -3 10 12 8 11 10 -8 10 -12 0 -21 5 -20 13 2 6 -3 11 -9 9 -7 -1
-13 4 -13 12 0 8 -9 18 -20 21 -11 3 -20 11 -20 16 0 6 -4 8 -9 4 -5 -3 -17 2
-25 11 -9 8 -16 12 -16 8 0 -4 -7 1 -16 12 -8 10 -12 12 -8 4 4 -8 -3 -5 -15
8 -24 24 -37 29 -25 10 6 -9 3 -9 -9 1 -9 7 -24 11 -32 7 -8 -3 -15 0 -15 5 0
6 -9 9 -20 6 -11 -3 -18 -1 -14 4 3 5 -1 10 -8 10 -7 1 -20 2 -28 3 -8 1 -24
-3 -35 -8 -18 -8 -18 -7 -7 7 12 14 11 15 -17 7 -21 -6 -29 -5 -25 1 3 6 -2 9
-12 8 -11 -2 -25 0 -33 5 -9 6 -12 5 -8 -1 4 -6 0 -13 -8 -17 -8 -3 -15 0 -15
7 0 8 -3 9 -8 1 -4 -6 -24 -10 -44 -10 -21 1 -38 -2 -38 -6 0 -4 -20 -10 -45
-14 -30 -4 -42 -10 -38 -18 4 -6 -2 -4 -13 4 -10 8 -16 10 -12 6 8 -9 -19 -35
-37 -36 -5 0 -3 5 5 10 11 7 12 10 2 10 -8 0 -16 -9 -19 -20 -3 -11 -10 -20
-15 -20 -5 0 -6 6 -3 13 4 6 -1 3 -9 -7 -9 -11 -16 -17 -16 -13 0 4 -13 -6
-30 -23 -16 -16 -32 -30 -35 -30 -10 0 -75 -72 -75 -82 0 -5 -9 -4 -21 2 -12
7 -18 18 -15 26 4 12 1 14 -14 9 -15 -5 -18 -3 -14 8 3 9 -6 23 -21 35 -15 12
-24 26 -21 31 4 5 1 13 -5 17 -8 5 -10 2 -5 -7 4 -8 1 -6 -7 3 -8 10 -17 15
-20 11 -4 -3 -7 1 -7 10 0 10 -4 17 -10 17 -5 0 -18 9 -29 21 -12 13 -24 18
-32 13 -9 -5 -11 -2 -6 9 4 11 -2 17 -24 22 -16 4 -33 13 -37 22 -5 8 -13 14
-18 14 -17 -1 -44 10 -44 19 0 5 -9 7 -20 5 -11 -2 -20 0 -20 4 0 4 -6 8 -12
9 -7 0 -24 3 -38 7 -14 4 -33 8 -42 9 -10 1 -21 5 -24 9 -4 4 -14 1 -22 -6
-13 -10 -14 -9 -7 2 6 11 3 13 -13 9 -12 -4 -25 -2 -28 3 -3 5 -13 5 -24 -1
-13 -7 -21 -7 -26 1 -4 8 -9 7 -15 -2 -6 -9 -9 -10 -9 -2 0 6 -9 11 -20 10
-11 -1 -20 -5 -20 -10 0 -5 -8 -3 -17 4 -9 8 -14 9 -10 3 5 -8 -5 -11 -33 -10
-22 1 -43 0 -46 -3 -2 -3 -17 -7 -32 -9 -14 -2 -32 -8 -39 -14 -7 -5 -17 -7
-23 -3 -5 3 -10 1 -10 -4 0 -6 -3 -10 -7 -10 -25 4 -53 -2 -48 -11 3 -5 -1
-10 -11 -10 -9 0 -23 -8 -30 -17 -8 -11 -13 -13 -14 -5 0 6 -5 12 -12 12 -6 0
-8 -3 -5 -7 9 -8 -44 -44 -55 -37 -4 3 -5 -3 -1 -12 4 -12 3 -15 -5 -10 -7 4
-15 1 -18 -8 -3 -9 -13 -16 -21 -16 -8 0 -11 -4 -8 -10 3 -5 2 -10 -4 -10 -11
0 -61 -44 -64 -57 -1 -4 -5 -7 -9 -5 -5 1 -8 -4 -8 -12 0 -8 -7 -17 -16 -20
-8 -3 -13 -10 -10 -15 4 -5 -2 -11 -11 -13 -10 -2 -18 -12 -18 -23 0 -12 -6
-19 -14 -17 -12 3 -12 0 -2 -12 10 -12 8 -16 -10 -21 -17 -6 -19 -9 -8 -16 10
-6 11 -9 2 -9 -7 0 -13 -7 -13 -15 0 -8 -5 -15 -11 -15 -5 0 -8 -4 -4 -9 3 -5
-1 -16 -9 -24 -11 -10 -12 -17 -4 -25 8 -8 7 -13 -5 -17 -9 -4 -13 -13 -10
-21 3 -8 0 -14 -6 -14 -6 0 -8 -6 -6 -12 6 -17 -21 -52 -34 -44 -5 4 -12 2
-16 -4 -4 -6 -11 -8 -16 -5 -5 4 -9 1 -9 -4 0 -6 -5 -11 -11 -11 -14 0 -59
-47 -59 -61 0 -5 6 -9 13 -9 9 0 9 -2 -1 -9 -11 -6 -12 -56 -2 -68 2 -2 3 -9
4 -15 1 -7 8 -12 15 -10 9 2 11 -3 7 -13 -3 -9 -2 -13 4 -10 6 3 10 1 10 -4 0
-6 6 -10 13 -9 6 2 11 -2 10 -8 -1 -5 12 -9 28 -8 16 1 29 -2 29 -8 0 -5 4 -7
8 -4 4 2 8 -4 8 -14 0 -10 -4 -16 -9 -13 -5 3 -2 -8 7 -25 8 -16 12 -32 9 -36
-4 -3 0 -6 7 -6 7 0 10 -3 7 -7 -4 -3 0 -17 9 -31 9 -13 11 -21 5 -18 -7 5 -9
1 -5 -8 3 -9 10 -16 14 -16 5 0 7 -9 5 -20 -2 -11 1 -23 7 -26 7 -5 8 -2 4 7
-4 8 -1 5 8 -5 8 -10 13 -23 10 -27 -3 -5 0 -9 6 -9 6 0 8 -4 5 -10 -3 -5 -1
-10 4 -10 6 0 11 -7 11 -15 0 -9 7 -18 15 -21 8 -4 15 -13 15 -21 0 -8 5 -11
10 -8 6 3 10 0 10 -8 0 -8 9 -22 20 -32 11 -10 17 -23 13 -29 -3 -6 -3 -8 1
-4 8 7 20 0 62 -39 14 -13 27 -23 30 -23 9 0 33 -27 29 -32 -2 -2 5 -5 17 -5
12 -1 24 -6 27 -10 10 -13 50 -33 66 -33 10 0 13 -5 9 -11 -5 -8 1 -10 20 -7
18 4 29 1 33 -7 2 -8 11 -16 19 -19 9 -4 12 -2 8 5 -7 12 37 2 46 -11 3 -4 15
-6 27 -5 13 1 23 -2 23 -7 0 -4 5 -8 11 -8 5 0 7 5 3 11 -4 8 0 8 15 0 11 -7
21 -9 21 -6 0 3 9 1 20 -5 11 -6 20 -7 20 -3 0 4 28 9 63 9 100 2 147 8 147
17 0 5 7 7 15 3 8 -3 15 -1 15 3 0 5 12 8 26 6 15 -1 28 3 31 12 4 10 9 11 18
3 10 -8 17 -6 27 9 7 10 22 21 33 23 11 1 25 10 32 18 7 8 13 11 13 6 0 -6 7
-1 16 10 8 10 12 13 8 5 -4 -8 9 -1 29 15 20 16 37 33 37 38 0 4 7 5 16 2 8
-3 12 -2 9 4 -3 6 -1 10 5 10 6 0 24 21 41 48 16 26 33 46 37 45 4 -2 7 3 7
10 1 6 7 11 14 9 7 -1 10 2 6 8 -3 5 -1 10 4 10 6 0 10 6 9 13 -2 6 2 11 9 10
7 -2 10 3 7 11 -3 7 2 20 10 29 8 8 12 17 9 21 -4 3 -1 6 5 6 7 0 12 7 12 16
0 8 4 12 10 9 6 -3 7 1 4 9 -3 9 -1 16 5 16 6 0 8 6 5 13 -3 8 2 20 11 27 12
10 13 16 4 26 -9 11 -8 14 0 14 7 0 10 4 6 9 -3 5 0 13 6 16 5 4 8 13 5 21 -3
8 0 14 6 14 6 0 5 6 -3 17 -9 11 -10 14 -2 9 9 -5 12 1 9 23 -2 17 0 31 4 31
4 0 7 7 7 15 0 8 -5 15 -10 15 -5 0 -4 7 3 15 7 9 10 18 7 22 -4 3 -2 14 3 24
7 12 6 19 -3 22 -9 4 -8 6 2 6 10 1 11 4 2 15 -9 11 -9 16 0 22 8 5 9 3 4 -6
-5 -9 -4 -11 4 -6 9 6 9 11 1 21 -8 10 -8 15 0 20 6 4 9 14 6 22 -4 9 -2 11 6
7 8 -5 9 -2 5 9 -3 10 -2 17 4 17 6 0 8 4 4 9 -3 5 2 16 10 24 8 9 15 19 15
23 0 4 11 17 26 30 14 13 22 24 19 24 -4 0 0 7 9 15 8 8 20 15 26 15 6 0 9 4
6 9 -7 11 49 32 60 23 4 -4 4 -1 0 5 -5 9 5 15 33 19 23 4 39 10 36 13 -2 4
12 7 31 6 18 -1 34 1 34 6 0 6 28 5 38 -1 7 -6 49 -3 60 4 7 4 14 2 17 -6 3
-8 18 -15 33 -16 15 -1 29 -7 30 -12 2 -6 8 -8 13 -4 5 3 9 0 9 -6 0 -6 4 -9
9 -5 5 3 16 -1 24 -9 8 -8 18 -12 22 -8 5 4 5 2 2 -4 -9 -15 26 -44 53 -44 5
0 9 -3 8 -7 -3 -10 21 -53 38 -71 7 -7 11 -19 8 -27 -4 -10 0 -15 12 -15 15 0
16 -2 5 -9 -11 -7 -10 -11 5 -20 12 -6 14 -11 5 -11 -9 0 -10 -4 -5 -12 5 -7
9 -27 9 -45 0 -17 2 -30 6 -27 4 2 9 -3 13 -11 3 -8 1 -17 -5 -21 -5 -3 -7
-15 -4 -27 4 -12 9 -30 12 -41 4 -14 2 -16 -8 -10 -11 6 -12 5 -3 -7 6 -8 10
-24 9 -36 -1 -13 3 -23 8 -23 5 0 6 -7 3 -16 -3 -8 -2 -13 3 -10 5 3 11 -3 14
-14 3 -13 1 -18 -5 -14 -6 4 -4 -6 5 -22 21 -40 60 -128 58 -132 -1 -2 8 -12
20 -23 12 -10 17 -19 10 -19 -6 0 2 -14 19 -30 17 -17 28 -30 25 -30 -3 0 7
-12 23 -27 15 -16 19 -21 8 -13 -21 15 -21 15 -2 -7 11 -13 25 -23 33 -23 7 0
16 -7 19 -15 3 -8 14 -17 25 -20 11 -4 17 -11 14 -16 -4 -5 3 -9 15 -9 12 0
18 -4 15 -10 -5 -9 1 -12 21 -9 3 0 14 -9 24 -21 13 -15 19 -17 23 -8 3 8 6 6
6 -5 1 -10 6 -15 11 -12 6 3 10 1 10 -5 0 -6 4 -9 9 -5 5 3 17 -2 25 -11 9 -8
16 -12 16 -8 0 3 8 0 17 -7 15 -12 16 -12 8 1 -8 13 -5 13 15 -1 25 -16 68
-30 102 -34 10 -1 21 -5 25 -8 3 -4 12 1 20 11 12 16 13 16 6 -2 -4 -13 -3
-17 5 -12 7 4 12 2 12 -4 0 -6 5 -8 10 -5 6 4 7 12 3 18 -5 8 -2 8 9 0 8 -7
18 -10 21 -6 4 3 7 1 7 -5 0 -8 7 -9 25 -2 18 7 25 6 25 -3 0 -8 3 -8 8 -1 4
5 22 10 40 9 17 0 32 4 32 10 0 5 5 3 10 -5 7 -12 10 -12 10 -1 0 7 6 11 13 8
8 -3 20 -1 28 3 8 5 19 4 26 -2 10 -8 12 -7 7 6 -4 9 -3 16 2 15 25 -4 54 2
49 11 -3 6 -2 10 4 10 5 0 12 -6 14 -12 4 -10 6 -10 6 0 1 6 10 12 22 12 12 0
17 4 14 11 -4 6 0 9 11 7 13 -2 18 2 16 12 -2 8 0 12 4 8 4 -4 13 -3 20 2 6 6
18 9 25 8 8 -2 13 2 12 9 -2 8 4 10 14 6 12 -5 14 -3 8 7 -6 10 -4 12 9 7 10
-4 15 -3 11 3 -3 6 -2 10 3 10 6 0 20 11 33 25 13 13 30 25 38 25 8 0 11 3 8
6 -3 4 5 16 19 27 14 11 23 26 20 34 -3 8 -1 11 4 8 6 -3 10 -1 10 5 0 6 5 8
10 5 6 -3 10 1 10 9 0 9 5 16 10 16 6 0 10 7 10 16 0 9 5 12 12 8 6 -4 8 -3 4
4 -3 6 -1 16 6 24 7 7 14 20 16 28 2 8 9 18 15 22 7 4 8 8 2 8 -5 0 -2 5 7 11
10 5 15 16 12 24 -4 8 -2 15 4 15 6 0 9 8 7 18 -1 9 0 22 4 27 6 10 7 16 10
36 0 5 5 7 11 4 6 -4 7 1 3 11 -4 11 -2 15 4 11 6 -4 9 4 7 19 -2 21 1 25 17
21 10 -3 19 -1 19 5 0 5 5 6 11 2 6 -3 15 -1 19 5 4 7 15 13 24 15 9 1 16 5
16 9 0 4 6 20 14 35 15 30 19 105 5 96 -8 -4 -14 17 -10 39 0 4 -7 7 -18 7
-19 0 -45 23 -36 32 3 3 -10 4 -29 1 -28 -3 -34 0 -30 11 3 8 1 17 -5 20 -6 4
-8 13 -4 21 3 8 1 15 -5 15 -6 0 -8 10 -4 22 3 14 1 19 -6 14 -8 -5 -10 -2 -6
8 3 9 2 16 -4 16 -6 0 -9 8 -8 18 2 9 0 19 -5 22 -4 3 -9 12 -11 20 -2 8 -10
21 -18 28 -13 12 -13 13 0 6 8 -4 4 5 -10 21 -14 16 -18 25 -10 21 8 -4 4 2
-10 14 -14 12 -19 19 -12 15 17 -9 15 -2 -7 23 -10 12 -22 18 -26 14 -5 -4 -5
-2 -2 4 4 6 -7 24 -23 40 -16 16 -30 35 -30 42 0 6 -6 12 -13 12 -7 0 -18 9
-25 20 -7 11 -17 20 -23 20 -7 0 -22 12 -35 26 -13 14 -29 22 -34 19 -6 -3
-10 -1 -10 4 0 6 -7 11 -15 11 -8 0 -15 5 -15 11 0 5 -4 7 -10 4 -5 -3 -10 -1
-10 5 0 6 -4 8 -10 5 -5 -3 -10 -1 -10 4 0 6 -7 11 -15 11 -8 0 -15 5 -15 11
0 5 -4 8 -9 4 -5 -3 -12 -1 -16 5 -3 5 -11 10 -16 10 -6 0 -7 -4 -4 -10 3 -5
-9 -2 -27 7 -64 32 -69 34 -78 28 -5 -3 -11 -1 -15 5 -3 5 -12 10 -18 10 -7 0
-6 -4 3 -10 12 -7 10 -9 -7 -7 -12 0 -20 4 -17 8 7 12 -190 6 -198 -6 -5 -6
-8 -6 -8 3 0 6 -5 12 -11 12 -5 0 -8 -4 -5 -8z m143 -251 c-10 -12 -9 -13 8
-4 17 8 48 10 70 4 3 0 8 -1 13 -2 4 0 13 -6 21 -12 12 -10 13 -9 6 3 -8 13
-7 13 9 0 10 -8 24 -15 30 -16 6 0 19 -2 29 -2 11 -1 15 -7 11 -14 -5 -8 0 -9
14 -6 12 4 20 2 16 -3 -5 -8 9 -13 29 -10 4 0 7 -4 7 -10 0 -5 4 -7 10 -4 6 4
7 -1 3 -11 -4 -12 -3 -15 5 -10 6 4 19 -2 29 -14 10 -11 23 -20 31 -20 7 0 10
-4 7 -10 -3 -5 1 -10 9 -10 10 0 13 -7 11 -20 -2 -11 0 -18 4 -16 9 6 41 -30
34 -38 -4 -3 -1 -6 6 -6 7 0 9 -4 6 -10 -3 -5 -1 -10 5 -10 6 0 8 -4 5 -10 -3
-5 -1 -10 5 -10 6 0 8 -4 5 -10 -3 -5 -1 -10 4 -10 6 0 11 -8 11 -18 0 -10 6
-24 13 -31 10 -11 9 -12 -3 -5 -12 6 -11 2 3 -19 20 -31 22 -51 5 -41 -10 6
-10 4 -2 -7 16 -21 24 -58 13 -65 -6 -3 -6 -12 0 -21 5 -9 5 -28 1 -42 -4 -14
-6 -34 -4 -43 1 -10 -2 -18 -6 -18 -5 0 -7 -9 -5 -20 2 -11 -1 -20 -6 -20 -6
0 -7 -4 -4 -10 3 -5 1 -10 -5 -10 -6 0 -9 -4 -6 -9 6 -10 -16 -61 -26 -61 -5
0 -8 -5 -8 -12 0 -6 -8 -20 -17 -31 -13 -15 -14 -18 -3 -12 8 4 6 -1 -5 -12
-11 -11 -24 -18 -29 -15 -5 3 -7 -2 -3 -11 3 -10 2 -17 -3 -17 -5 0 -21 -11
-36 -25 -14 -13 -31 -22 -36 -19 -4 3 -7 0 -6 -8 2 -7 -3 -12 -9 -11 -7 2 -13
-2 -13 -7 0 -6 -9 -10 -21 -10 -11 0 -17 -4 -14 -10 3 -5 -3 -10 -14 -10 -12
0 -21 -5 -21 -11 0 -5 -4 -7 -10 -4 -5 3 -20 0 -32 -7 -13 -7 -30 -13 -38 -14
-66 -8 -89 -12 -100 -19 -9 -6 -11 -4 -5 5 6 10 4 12 -10 7 -9 -4 -25 -2 -33
5 -10 8 -13 9 -9 2 4 -8 -2 -11 -18 -10 -14 0 -25 4 -25 7 0 3 -11 5 -25 4
-14 -2 -25 1 -25 6 0 6 -4 7 -10 4 -5 -3 -10 -2 -10 4 0 5 -11 8 -25 7 -13 -2
-23 2 -22 8 1 6 -5 10 -14 8 -9 -1 -19 4 -22 13 -4 9 -13 12 -23 8 -13 -5 -15
-3 -9 7 6 10 4 12 -8 7 -9 -3 -19 -1 -23 5 -5 7 -2 8 7 3 12 -8 12 -6 0 8 -7
9 -18 17 -23 17 -5 0 -23 14 -40 30 -16 17 -26 30 -22 30 4 0 -6 12 -22 26
-16 15 -22 23 -14 19 9 -4 9 -1 -2 8 -10 8 -18 22 -18 31 0 9 -3 16 -7 16 -5
0 -13 11 -20 25 -8 19 -8 25 0 26 8 0 8 2 -1 6 -6 2 -10 9 -6 14 3 5 1 9 -4 9
-5 0 -12 11 -14 25 -3 14 -1 25 6 25 6 0 5 4 -3 9 -16 10 -22 111 -6 111 6 0
3 5 -5 10 -8 5 -10 10 -4 10 6 0 10 11 9 25 -2 14 0 27 5 30 4 3 6 15 2 27 -4
15 -2 19 7 14 8 -5 11 -3 10 5 -3 20 12 70 20 65 4 -3 8 5 8 16 1 12 8 25 15
29 7 5 9 9 3 9 -5 0 -2 5 8 11 9 6 15 14 12 19 -3 5 4 12 16 15 11 4 18 9 16
12 -8 7 35 53 44 48 4 -3 11 4 14 16 4 11 9 18 12 15 4 -3 12 2 20 12 9 10 11
11 7 2 -7 -12 -5 -13 8 -3 8 7 19 9 23 5 5 -4 6 0 3 9 -6 15 -2 17 41 21 11 1
18 5 15 9 -2 4 3 9 11 13 8 3 15 0 15 -7 0 -7 5 -4 11 6 6 9 14 15 19 12 5 -3
19 -1 30 5 15 8 20 8 21 -2 0 -9 2 -10 5 -1 3 7 11 10 19 7 7 -3 15 -2 18 3 3
4 16 8 30 8 21 0 23 -3 14 -14z m-2241 -24 c4 -4 13 -2 21 4 8 7 13 7 13 2 0
-6 8 -10 18 -10 50 0 63 -4 56 -15 -5 -10 -4 -10 6 -1 10 9 19 9 40 -2 15 -8
30 -11 34 -8 3 4 6 1 6 -5 0 -7 7 -12 16 -12 8 0 12 -4 9 -10 -3 -5 0 -11 7
-12 7 0 18 -2 23 -2 16 -2 54 -44 47 -51 -4 -4 2 -5 13 -3 12 2 19 -2 18 -9
-2 -7 4 -13 12 -13 14 0 20 -13 15 -35 -1 -5 2 -7 6 -3 9 10 45 -32 38 -43 -3
-5 0 -9 5 -9 6 0 11 -9 11 -19 0 -11 5 -23 12 -27 7 -5 8 -3 3 6 -5 9 -4 11 4
6 6 -4 9 -12 5 -17 -3 -5 -1 -16 5 -23 6 -7 12 -25 13 -40 1 -14 6 -26 11 -26
5 0 7 -7 4 -15 -4 -8 -2 -17 2 -20 11 -6 2 -45 -11 -45 -5 0 -3 -6 4 -14 7 -8
18 -11 23 -8 6 3 4 -2 -4 -11 -7 -9 -11 -24 -7 -32 3 -8 0 -15 -7 -15 -9 0 -8
-3 1 -9 11 -7 10 -9 -3 -14 -12 -5 -14 -11 -5 -26 7 -14 7 -22 -1 -26 -6 -4
-8 -14 -5 -22 3 -8 2 -12 -3 -9 -5 3 -12 -1 -15 -10 -3 -8 -2 -12 3 -9 5 3 3
-8 -5 -25 -9 -16 -20 -30 -25 -30 -5 0 -9 -5 -9 -11 0 -5 6 -7 13 -4 6 4 3 -1
-7 -9 -11 -9 -16 -16 -11 -16 4 0 -2 -9 -15 -20 -13 -11 -19 -20 -14 -20 5 0
1 -5 -8 -11 -10 -5 -18 -16 -18 -24 0 -7 -10 -17 -22 -21 -26 -8 -49 -29 -41
-37 3 -3 -6 -9 -21 -13 -14 -3 -26 -10 -26 -16 0 -5 -4 -6 -10 -3 -5 3 -10 1
-10 -4 0 -6 -7 -11 -15 -11 -8 0 -15 -4 -15 -8 0 -5 -7 -9 -15 -10 -8 -1 -22
-3 -30 -4 -8 -1 -15 -5 -15 -10 0 -5 -4 -7 -10 -3 -5 3 -18 0 -30 -7 -16 -10
-24 -10 -40 -1 -16 10 -18 10 -14 -1 5 -14 -22 -16 -43 -3 -6 4 -15 3 -18 -3
-5 -8 -11 -7 -21 1 -11 9 -14 8 -14 -2 0 -8 -5 -5 -14 6 -11 16 -17 17 -29 7
-10 -8 -17 -9 -21 -3 -4 6 -14 7 -23 4 -10 -4 -14 -2 -9 5 4 7 -4 10 -23 10
-30 -1 -86 34 -73 46 3 4 0 4 -9 1 -14 -5 -40 10 -80 48 -11 9 -25 17 -31 17
-9 0 -8 4 2 10 13 8 12 10 -3 10 -10 0 -21 8 -24 18 -4 9 -15 24 -25 33 -10 9
-15 19 -11 23 3 3 0 6 -7 6 -7 0 -11 3 -7 6 3 4 -1 13 -9 21 -8 9 -13 22 -10
30 3 7 -1 16 -10 20 -9 3 -13 12 -9 21 3 8 1 19 -6 22 -6 4 -13 32 -16 61 -2
30 -5 63 -7 74 -1 11 0 24 3 29 2 5 5 30 6 55 2 25 4 48 5 51 2 3 4 12 4 20 1
8 8 14 16 12 11 -3 11 -1 0 13 -11 13 -11 15 -1 13 8 -2 15 6 17 17 1 11 8 21
14 23 5 2 8 8 4 13 -3 5 -1 9 5 9 6 0 7 7 4 17 -4 11 -3 14 5 9 7 -4 12 -3 12
3 0 6 10 20 23 31 12 12 22 27 22 33 0 7 8 11 17 11 9 -1 14 4 12 11 -3 6 3
18 13 26 17 13 17 13 3 -5 -14 -18 -14 -18 7 -6 12 8 19 18 17 22 -5 7 10 12
29 9 4 0 7 4 7 9 0 6 7 10 16 10 8 0 13 4 10 9 -5 7 48 24 58 18 1 -1 9 3 17
9 8 6 24 10 36 9 12 -1 20 2 18 6 -3 3 14 7 36 7 23 1 43 3 46 5 6 7 31 3 39
-6z m-86 -987 c0 -5 -2 -10 -4 -10 -3 0 -8 5 -11 10 -3 6 -1 10 4 10 6 0 11
-4 11 -10z"/>
</g>
</svg>
